<svg width="42" height="34" viewBox="0 0 42 34" fill="none" xmlns="http://www.w3.org/2000/svg">
<rect x="24.9001" y="24.9" width="8.3" height="8.3" transform="rotate(90 24.9001 24.9)" fill="black"/>
<rect x="16.6001" y="24.9" width="8.3" height="8.3" transform="rotate(90 16.6001 24.9)" fill="black"/>
<rect x="16.6001" y="16.6" width="8.3" height="8.3" transform="rotate(90 16.6001 16.6)" fill="#DF1A1A"/>
<rect x="8.30005" y="16.6" width="8.3" height="8.3" transform="rotate(90 8.30005 16.6)" fill="#DF1A1A"/>
<rect x="16.6001" y="8.29993" width="8.3" height="8.3" transform="rotate(90 16.6001 8.29993)" fill="#DF1A1A"/>
<rect x="24.9001" y="16.6" width="8.3" height="8.3" transform="rotate(90 24.9001 16.6)" fill="black"/>
<rect x="33.2" y="16.6" width="8.3" height="8.3" transform="rotate(90 33.2 16.6)" fill="black"/>
<rect x="24.9001" y="8.29993" width="8.3" height="8.3" transform="rotate(90 24.9001 8.29993)" fill="#DF1A1A"/>
<rect x="33.2" width="8.3" height="8.3" transform="rotate(90 33.2 0)" fill="#DF1A1A"/>
<rect x="33.2" y="8.29993" width="8.3" height="8.3" transform="rotate(90 33.2 8.29993)" fill="black"/>
<rect x="41.5" y="8.29993" width="8.3" height="8.3" transform="rotate(90 41.5 8.29993)" fill="black"/>
<rect x="24.9001" width="8.3" height="8.3" transform="rotate(90 24.9001 0)" fill="#DF1A1A"/>
</svg>
