<svg width="14" height="14" viewBox="0 0 14 14" fill="none" xmlns="http://www.w3.org/2000/svg">
<mask id="path-1-inside-1_296_11706" fill="white">
<path fill-rule="evenodd" clip-rule="evenodd" d="M6.99851 7.58472L10.207 10.7932L10.7894 10.2108L7.58092 7.00231L10.7917 3.79155L10.2083 3.20821L6.99758 6.41897L3.78929 3.21068L3.20688 3.79309L6.41517 7.00138L3.20826 10.2083L3.7916 10.7916L6.99851 7.58472Z"/>
</mask>
<path fill-rule="evenodd" clip-rule="evenodd" d="M6.99851 7.58472L10.207 10.7932L10.7894 10.2108L7.58092 7.00231L10.7917 3.79155L10.2083 3.20821L6.99758 6.41897L3.78929 3.21068L3.20688 3.79309L6.41517 7.00138L3.20826 10.2083L3.7916 10.7916L6.99851 7.58472Z" fill="#4F4F4F"/>
<path d="M10.207 10.7932L9.49985 11.5003L10.207 12.2074L10.9141 11.5003L10.207 10.7932ZM6.99851 7.58472L7.70562 6.87761L6.99851 6.17051L6.2914 6.87761L6.99851 7.58472ZM10.7894 10.2108L11.4965 10.9179L12.2036 10.2108L11.4965 9.50365L10.7894 10.2108ZM7.58092 7.00231L6.87381 6.2952L6.16671 7.00231L6.87381 7.70942L7.58092 7.00231ZM10.7917 3.79155L11.4988 4.49866L12.2059 3.79155L11.4988 3.08445L10.7917 3.79155ZM10.2083 3.20821L10.9154 2.50111L10.2083 1.794L9.50123 2.50111L10.2083 3.20821ZM6.99758 6.41897L6.29047 7.12608L6.99758 7.83318L7.70469 7.12608L6.99758 6.41897ZM3.78929 3.21068L4.4964 2.50358L3.78929 1.79647L3.08219 2.50358L3.78929 3.21068ZM3.20688 3.79309L2.49978 3.08599L1.79267 3.79309L2.49978 4.5002L3.20688 3.79309ZM6.41517 7.00138L7.12228 7.70849L7.82938 7.00138L7.12228 6.29427L6.41517 7.00138ZM3.20826 10.2083L2.50115 9.50118L1.79405 10.2083L2.50115 10.9154L3.20826 10.2083ZM3.7916 10.7916L3.08449 11.4987L3.7916 12.2058L4.49871 11.4987L3.7916 10.7916ZM10.9141 10.0861L7.70562 6.87761L6.2914 8.29183L9.49985 11.5003L10.9141 10.0861ZM10.0823 9.50365L9.49985 10.0861L10.9141 11.5003L11.4965 10.9179L10.0823 9.50365ZM6.87381 7.70942L10.0823 10.9179L11.4965 9.50365L8.28803 6.2952L6.87381 7.70942ZM10.0846 3.08445L6.87381 6.2952L8.28803 7.70942L11.4988 4.49866L10.0846 3.08445ZM9.50123 3.91532L10.0846 4.49866L11.4988 3.08445L10.9154 2.50111L9.50123 3.91532ZM7.70469 7.12608L10.9154 3.91532L9.50123 2.50111L6.29047 5.71186L7.70469 7.12608ZM3.08219 3.91779L6.29047 7.12608L7.70469 5.71186L4.4964 2.50358L3.08219 3.91779ZM3.91399 4.5002L4.4964 3.91779L3.08219 2.50358L2.49978 3.08599L3.91399 4.5002ZM7.12228 6.29427L3.91399 3.08599L2.49978 4.5002L5.70806 7.70849L7.12228 6.29427ZM3.91537 10.9154L7.12228 7.70849L5.70806 6.29427L2.50115 9.50118L3.91537 10.9154ZM4.49871 10.0845L3.91537 9.50118L2.50115 10.9154L3.08449 11.4987L4.49871 10.0845ZM6.2914 6.87761L3.08449 10.0845L4.49871 11.4987L7.70562 8.29183L6.2914 6.87761Z" fill="#4F4F4F" mask="url(#path-1-inside-1_296_11706)"/>
</svg>
