<svg width="7" height="7" viewBox="0 0 7 7" fill="none" xmlns="http://www.w3.org/2000/svg">
<mask id="path-1-inside-1_226_15370" fill="white">
<path fill-rule="evenodd" clip-rule="evenodd" d="M3.79172 3.793L7.00012 3.793L7.00012 3.21058L3.79172 3.21058L3.79172 -1.12699e-07L3.20837 -1.96636e-07L3.20837 3.21058L8.46478e-06 3.21058L8.44332e-06 3.793L3.20837 3.793L3.20837 7.00011L3.79172 7.00011L3.79172 3.793Z"/>
</mask>
<path fill-rule="evenodd" clip-rule="evenodd" d="M3.79172 3.793L7.00012 3.793L7.00012 3.21058L3.79172 3.21058L3.79172 -1.12699e-07L3.20837 -1.96636e-07L3.20837 3.21058L8.46478e-06 3.21058L8.44332e-06 3.793L3.20837 3.793L3.20837 7.00011L3.79172 7.00011L3.79172 3.793Z" fill="#4F4F4F"/>
<path d="M7.00012 3.793L7.00012 4.793L8.00012 4.793L8.00012 3.793L7.00012 3.793ZM3.79172 3.793L3.79172 2.793L2.79172 2.793L2.79172 3.793L3.79172 3.793ZM7.00012 3.21058L8.00012 3.21058L8.00012 2.21058L7.00012 2.21058L7.00012 3.21058ZM3.79172 3.21058L2.79172 3.21058L2.79172 4.21058L3.79172 4.21058L3.79172 3.21058ZM3.79172 -1.12699e-07L4.79172 1.34202e-08L4.79172 -1L3.79172 -1L3.79172 -1.12699e-07ZM3.20837 -1.96636e-07L3.20837 -1L2.20838 -1L2.20837 -3.22755e-07L3.20837 -1.96636e-07ZM3.20837 3.21058L3.20837 4.21058L4.20837 4.21058L4.20837 3.21058L3.20837 3.21058ZM8.46478e-06 3.21058L8.50162e-06 2.21058L-0.999991 2.21058L-0.999992 3.21058L8.46478e-06 3.21058ZM8.44332e-06 3.793L-0.999992 3.793L-0.999992 4.793L8.40648e-06 4.793L8.44332e-06 3.793ZM3.20837 3.793L4.20837 3.793L4.20837 2.793L3.20837 2.793L3.20837 3.793ZM3.20837 7.00011L2.20837 7.00011L2.20837 8.00011L3.20837 8.00011L3.20837 7.00011ZM3.79172 7.00011L3.79172 8.00011L4.79172 8.00011L4.79172 7.00011L3.79172 7.00011ZM7.00012 2.793L3.79172 2.793L3.79172 4.793L7.00012 4.793L7.00012 2.793ZM6.00012 3.21058L6.00012 3.793L8.00012 3.793L8.00012 3.21058L6.00012 3.21058ZM3.79172 4.21058L7.00012 4.21058L7.00012 2.21058L3.79172 2.21058L3.79172 4.21058ZM2.79172 -2.38818e-07L2.79172 3.21058L4.79172 3.21058L4.79172 1.34202e-08L2.79172 -2.38818e-07ZM3.20837 1L3.79172 1L3.79172 -1L3.20837 -1L3.20837 1ZM4.20837 3.21058L4.20837 -7.0517e-08L2.20837 -3.22755e-07L2.20837 3.21058L4.20837 3.21058ZM8.42793e-06 4.21058L3.20837 4.21058L3.20837 2.21058L8.50162e-06 2.21058L8.42793e-06 4.21058ZM1.00001 3.793L1.00001 3.21058L-0.999992 3.21058L-0.999992 3.793L1.00001 3.793ZM3.20837 2.793L8.48016e-06 2.793L8.40648e-06 4.793L3.20837 4.793L3.20837 2.793ZM4.20837 7.00011L4.20837 3.793L2.20837 3.793L2.20837 7.00011L4.20837 7.00011ZM3.79172 6.00011L3.20837 6.00011L3.20837 8.00011L3.79172 8.00011L3.79172 6.00011ZM2.79172 3.793L2.79172 7.00011L4.79172 7.00011L4.79172 3.793L2.79172 3.793Z" fill="#4F4F4F" mask="url(#path-1-inside-1_226_15370)"/>
</svg>
