<svg width="146" height="117" viewBox="0 0 146 117" fill="none" xmlns="http://www.w3.org/2000/svg">
<rect x="87.6001" y="87.6" width="29.2" height="29.2" transform="rotate(90 87.6001 87.6)" fill="black"/>
<rect x="58.3999" y="87.6" width="29.2" height="29.2" transform="rotate(90 58.3999 87.6)" fill="black"/>
<rect x="58.3999" y="58.4" width="29.2" height="29.2" transform="rotate(90 58.3999 58.4)" fill="#DF1A1A"/>
<rect x="29.2" y="58.4" width="29.2" height="29.2" transform="rotate(90 29.2 58.4)" fill="#DF1A1A"/>
<rect x="58.3999" y="29.2" width="29.2" height="29.2" transform="rotate(90 58.3999 29.2)" fill="#DF1A1A"/>
<rect x="87.6001" y="58.4" width="29.2" height="29.2" transform="rotate(90 87.6001 58.4)" fill="black"/>
<rect x="116.8" y="58.4" width="29.2" height="29.2" transform="rotate(90 116.8 58.4)" fill="black"/>
<rect x="87.6001" y="29.2" width="29.2" height="29.2" transform="rotate(90 87.6001 29.2)" fill="#DF1A1A"/>
<rect x="116.8" width="29.2" height="29.2" transform="rotate(90 116.8 0)" fill="#DF1A1A"/>
<rect x="116.8" y="29.2" width="29.2" height="29.2" transform="rotate(90 116.8 29.2)" fill="black"/>
<rect x="146" y="29.2" width="29.2" height="29.2" transform="rotate(90 146 29.2)" fill="black"/>
<rect x="87.6001" width="29.2" height="29.2" transform="rotate(90 87.6001 0)" fill="#DF1A1A"/>
</svg>
