<svg width="359" height="20" viewBox="0 0 359 20" fill="none" xmlns="http://www.w3.org/2000/svg">
<g clip-path="url(#clip0_120_12150)">
<path d="M244.724 11.9113V15.8762H260.292V19.5609H240.83V0.107178H260.194V3.66819H244.683V7.78974H260.497V4.05562H264.113V15.596H260.668V11.9113H244.724Z" fill="#333333"/>
<path d="M120.007 0C121.166 0 122.284 0 123.395 0C123.484 0 123.599 0.156619 123.64 0.263779C123.66 0.389309 123.66 0.517432 123.64 0.642961V15.7938H142.686C143.322 15.7938 143.322 15.7938 143.322 16.4367C143.322 17.261 143.322 18.1513 143.322 19.0086C143.322 19.4125 143.208 19.5196 142.816 19.5196C137.379 19.5196 131.942 19.5196 126.489 19.5196H119.958L120.007 0Z" fill="#F72C2C"/>
<path d="M210.935 0.0741577H214.445V7.97104H226.242V11.598H214.551V19.4866H210.935V0.0741577Z" fill="#F72C2C"/>
<path d="M331.798 0.123657H335.268V7.93811H347.097V11.6887H335.39V19.5691H331.798V0.123657Z" fill="#333333"/>
<path d="M291.747 4.06384V11.5403H272.481V4.06384H276.122V6.47907C276.122 6.65217 276.122 6.82528 276.122 6.99838C276.122 7.76499 276.318 7.94634 277.093 7.94634H287.78C287.861 7.95076 287.943 7.95076 288.024 7.94634V4.06384H291.747Z" fill="#333333"/>
<path d="M304.001 16.0905H323.284V19.5526H304.001V16.0905Z" fill="#333333"/>
<path d="M303.977 0.148376H323.284V3.5775H303.977V0.148376Z" fill="#333333"/>
<path d="M202.501 15.9833C202.501 17.1291 202.501 18.1925 202.501 19.2806C202.501 19.363 202.346 19.4784 202.248 19.5279C202.14 19.5486 202.03 19.5486 201.922 19.5279C195.864 19.5279 189.815 19.5279 183.766 19.5279C183.284 19.5279 183.137 19.4042 183.162 18.9261C183.202 18.1298 183.202 17.3319 183.162 16.5356C183.162 16.0905 183.292 15.9833 183.717 15.9833C188.982 15.9833 194.248 15.9833 199.513 15.9833H202.501Z" fill="#F72C2C"/>
<path d="M170.9 0.107178V3.52806H151.641V0.107178H170.9Z" fill="#F72C2C"/>
<path d="M183.21 0.0824585H202.412V3.59402H183.21V0.0824585Z" fill="#F72C2C"/>
<path d="M151.666 19.429V15.9751H170.891V19.429H151.666Z" fill="#F72C2C"/>
<path d="M303.544 15.6619H300.131V4.03088H303.544V15.6619Z" fill="#333333"/>
<path d="M171.536 4.19574H174.957V15.5795H171.536V4.19574Z" fill="#F72C2C"/>
<path d="M203.016 15.4887V4.12152H206.461V15.4887H203.016Z" fill="#F72C2C"/>
<path d="M147.763 4.17102H151.143V15.4723C151.013 15.4723 150.882 15.4723 150.743 15.4723C149.862 15.4723 148.98 15.4723 148.098 15.4723C147.829 15.4723 147.706 15.4146 147.706 15.1014C147.706 11.5403 147.706 7.98757 147.706 4.42656C147.717 4.33968 147.736 4.25409 147.763 4.17102Z" fill="#F72C2C"/>
<path d="M287.788 3.55277H276.546V0.148376H287.788V3.55277Z" fill="#333333"/>
<path d="M182.753 15.4888H179.39V4.20398H182.753V15.4888Z" fill="#F72C2C"/>
<path d="M292.261 12.1339H295.796V19.5526H292.261V12.1339Z" fill="#333333"/>
<path d="M359 19.5691H351.424V16.0823H359V19.5691Z" fill="#333333"/>
<path d="M230.658 0.0741577H238.16V3.56923H230.658V0.0741577Z" fill="#F72C2C"/>
<path d="M358.992 0.107178V3.53631H351.473V0.107178H358.992Z" fill="#333333"/>
<path d="M230.642 19.4949V16.0328H238.103V19.4949H230.642Z" fill="#F72C2C"/>
<path d="M271.967 19.4949H268.521V12.1174H271.967V19.4949Z" fill="#333333"/>
<path d="M327.3 7.50119H323.765V4.12152H327.3V7.50119Z" fill="#333333"/>
<path d="M327.317 15.5795H323.79V12.1174H327.317V15.5795Z" fill="#333333"/>
<path d="M350.951 7.55891H347.538V4.07208H350.951V7.55891Z" fill="#333333"/>
<path d="M347.514 12.1833H350.983V15.6042H347.514V12.1833Z" fill="#333333"/>
<path d="M19.4133 0.098938V3.70941H3.90219V15.8845H19.4133V19.6268H-7.54907e-05C-0.00713629 19.4978 -0.00713629 19.3684 -7.54907e-05 19.2394V0.379203C-7.54907e-05 0.288529 -7.54907e-05 0.189612 -7.54907e-05 0.098938H19.4133Z" fill="#333333"/>
<path d="M86.5355 0.098938C86.5355 0.272043 86.5763 0.445148 86.5763 0.618253C86.5763 6.76211 86.5763 12.9005 86.5763 19.0333V19.5691H79.0085V16.0905C79.6453 16.0493 80.2821 15.9834 80.9189 15.9669C82.6006 15.9669 82.8537 15.6866 82.8537 13.9803C82.8537 9.55377 82.8537 5.13547 82.8537 0.708927C82.8537 0.50285 82.8537 0.305015 82.8537 0.098938H86.5355Z" fill="#333333"/>
<path d="M118.162 0.206055V3.69288H106.488V19.6515H102.708V3.83302H90.9031V0.206055H118.162Z" fill="#333333"/>
<path d="M59.334 0.206055H66.6813V3.65991H62.9424V19.635H59.334V0.206055Z" fill="#333333"/>
<path d="M31.6262 19.635V16.1317H50.9334V19.635H31.6262Z" fill="#333333"/>
<path d="M50.9172 0.197815V3.6764H31.6018V0.197815H50.9172Z" fill="#333333"/>
<path d="M31.1528 15.5629H27.6587V4.12152H31.1528V15.5629Z" fill="#333333"/>
<path d="M54.9746 15.5629H51.5132V4.12152H54.9746V15.5629Z" fill="#333333"/>
<path d="M19.9031 4.12152H23.3318V15.5382H19.9031V4.12152Z" fill="#333333"/>
<path d="M67.2366 4.12152H70.7551V7.55889H67.2366V4.12152Z" fill="#333333"/>
<path d="M71.2041 8.03699H74.6247V11.5403H71.2041V8.03699Z" fill="#333333"/>
<path d="M78.5513 15.563H75.1062V12.1091H78.5268L78.5513 15.563Z" fill="#333333"/>
<path d="M226.699 4.20398H230.111C230.111 4.36884 230.111 4.5337 230.111 4.69856C230.111 5.52287 230.111 6.3884 230.111 7.2292C230.111 7.53419 230.054 7.69081 229.703 7.67432C228.821 7.67432 227.94 7.67432 227.058 7.67432C226.829 7.67432 226.666 7.67432 226.666 7.35284C226.699 6.32245 226.699 5.28382 226.699 4.20398Z" fill="#F72C2C"/>
<path d="M230.16 12.1174V15.497H226.772V12.1174H230.16Z" fill="#F72C2C"/>
</g>
<defs>
<clipPath id="clip0_120_12150">
<rect width="359" height="19.6515" fill="white"/>
</clipPath>
</defs>
</svg>
