<svg xmlns="http://www.w3.org/2000/svg" viewBox="0 0 61.5 61.5"><defs><style>.cls-1{fill:#ceb0d1;stroke:#6d3556;stroke-miterlimit:10;stroke-width:1.5px;opacity:0;}</style></defs><g id="Layer_2" data-name="Layer 2"><g id="Layer_1-2" data-name="Layer 1"><rect class="cls-1" x="0.75" y="0.75" width="60" height="60" rx="12.63"/><path d="M12.77,30.69V13.2c0-1.07.24-1.31,1.29-1.31H40.42a1.66,1.66,0,0,1,1.29.52q3.24,3.28,6.52,6.52a1.58,1.58,0,0,1,.5,1.23q0,14.12,0,28.22c0,1-.26,1.25-1.25,1.25H14c-1,0-1.23-.27-1.24-1.26Zm4.38,17.15V31.69c0-1.15.22-1.38,1.35-1.38H43c1.13,0,1.35.23,1.35,1.38q0,7.69,0,15.39v.75h2.59c0-.19,0-.34,0-.49Q47,34,47,20.58a1.16,1.16,0,0,0-.32-.75C44.85,18,43,16.27,41.26,14.4a2.69,2.69,0,0,0-2.61-.71v10.1c0,1-.27,1.26-1.24,1.26H24.12c-1,0-1.28-.26-1.28-1.28V13.67H14.58V47.84Zm25.39,0V32.09H19V47.83ZM24.62,23.25H36.85V13.69H24.62Z"/><path d="M27.31,39.09c1.55,0,3.1,0,4.66,0a.88.88,0,1,1,0,1.74c-.15,0-.31,0-.46,0H23c-.14,0-.28,0-.41,0-.62,0-1-.38-1-.89a.9.9,0,0,1,1-.85C24.12,39.08,25.71,39.09,27.31,39.09Z"/><path d="M25.93,34.71h3.32c.66,0,1,.3,1,.83s-.36.91-1,.92h-6.7c-.62,0-1-.36-1-.88s.39-.86,1-.87Z"/><path d="M36.44,40.82a.87.87,0,0,1-.87-.89.88.88,0,0,1,.88-.83.84.84,0,0,1,.85.89A.83.83,0,0,1,36.44,40.82Z"/><path d="M35.14,18.46c0,.66,0,1.32,0,2s-.32,1.1-1.1,1.1q-1.55,0-3.09,0c-.75,0-1.07-.3-1.08-1.05,0-1.35,0-2.71,0-4.07,0-.7.31-1,1-1,1.09,0,2.18,0,3.26,0,.68,0,1,.33,1,1S35.14,17.79,35.14,18.46Zm-3.48-1.27v2.56h1.67V17.19Z"/></g></g></svg>