<svg xmlns="http://www.w3.org/2000/svg" viewBox="0 0 61.5 61.5"><defs><style>.cls-1{fill:#ceb0d1;stroke:#6d3556;stroke-miterlimit:10;stroke-width:1.5px;opacity:0;}</style></defs><g id="Layer_2" data-name="Layer 2"><g id="Layer_1-2" data-name="Layer 1"><rect class="cls-1" x="0.75" y="0.75" width="60" height="60" rx="12.63"/><path d="M14.79,29.62H48c-.15-.38-.27-.7-.41-1-.92-2.23-1.87-4.44-2.75-6.69a1,1,0,0,0-1.15-.75c-1.89,0-3.79,0-5.69,0-.64,0-1.17-.21-1.24-.94a1,1,0,0,1,1-1.12c2.47,0,5,0,7.43,0a1.29,1.29,0,0,1,.92.69c1.31,3.12,2.56,6.27,3.81,9.42a3,3,0,0,1,.15,1.08V49.66c0,1.25,0,1.28-1.29,1.28q-17.52,0-35,0a4.41,4.41,0,0,1-1.34-.21,1.28,1.28,0,0,1-1-1.37c0-6,0-12,0-18.07a3.39,3.39,0,0,1,.3-1.32c1.46-3.29,3-6.57,4.42-9.87A1.65,1.65,0,0,1,17.91,19c2.2,0,4.4,0,6.6,0,1,0,1.45.38,1.47,1.12s-.47,1.07-1.49,1.08c-1.87,0-3.73,0-5.6,0a1.17,1.17,0,0,0-.89.52c-1.08,2.49-2.1,5-3.13,7.52A2.65,2.65,0,0,0,14.79,29.62Zm10,13.58a1.87,1.87,0,0,0-1.86,1.86A1.89,1.89,0,0,0,24.84,47a1.92,1.92,0,0,0,1.87-1.87A1.89,1.89,0,0,0,24.78,43.2Zm-6.44,0a1.88,1.88,0,1,0,0,3.76,1.88,1.88,0,0,0,0-3.76Z"/><path d="M41.8,12.67c-5.41.6-9.08,4.33-9.48,9.5-.06.76-.43,1-1.1,1s-1-.44-1-1.15A12.38,12.38,0,0,1,40.58,10.4l.74-.11c-1.07-.5-1.91-.87-2.73-1.28s-1-1-.64-1.61a1,1,0,0,1,1.41-.48c1.84.8,3.7,1.59,5.53,2.42a1.1,1.1,0,0,1,.53,1.79C44.22,13,43,14.79,41.77,16.62a1,1,0,0,1-1.5.38A1,1,0,0,1,40,15.4Z"/></g></g></svg>