<svg xmlns="http://www.w3.org/2000/svg" viewBox="0 0 84 84"><defs><style>.cls-1,.cls-2{fill:none;stroke-miterlimit:10;}.cls-1{stroke:#cecece;stroke-width:2px;opacity:0;}.cls-2{stroke:#000;}</style></defs><g id="Layer_2" data-name="Layer 2"><g id="Layer_1-2" data-name="Layer 1"><rect class="cls-1" x="1" y="1" width="82" height="82"/><rect x="43.08" y="30.33" width="13" height="13"/><rect x="29.15" y="30.33" width="13" height="13"/><rect x="15.21" y="30.33" width="13" height="13"/><line class="cls-2" x1="31.79" y1="53.67" x2="55.08" y2="53.67"/><path d="M38.62,58.47a.5.5,0,0,0-.15-.69L32,53.67l6.45-4.11a.5.5,0,0,0-.54-.85l-7.11,4.53a.52.52,0,0,0-.24.43.49.49,0,0,0,.24.42l7.11,4.53a.53.53,0,0,0,.27.08A.49.49,0,0,0,38.62,58.47Z"/><path d="M69,31.33v11H58v-11H69m1-1H57v13H70v-13Z"/><line class="cls-2" x1="67.52" y1="43.17" x2="67.52" y2="31.17"/><line class="cls-2" x1="65.52" y1="43.17" x2="65.52" y2="31.17"/><line class="cls-2" x1="63.52" y1="43.17" x2="63.52" y2="31.17"/><line class="cls-2" x1="61.52" y1="43.17" x2="61.52" y2="31.17"/><line class="cls-2" x1="59.52" y1="43.17" x2="59.52" y2="31.17"/></g></g></svg>