<svg xmlns="http://www.w3.org/2000/svg" viewBox="0 0 84 84"><defs><style>.cls-1,.cls-2{fill:none;stroke-miterlimit:10;}.cls-1{stroke:#cecece;stroke-width:2px;opacity:0;}.cls-2{stroke:#000;}</style></defs><g id="Layer_2" data-name="Layer 2"><g id="Layer_1-2" data-name="Layer 1"><rect class="cls-1" x="1" y="1" width="82" height="82"/><rect x="67.75" y="67.75" width="13" height="13"/><rect x="54.75" y="54.75" width="13" height="13"/><rect x="41.75" y="41.75" width="13" height="13"/><rect x="28.75" y="28.75" width="13" height="13"/><rect x="15.75" y="15.75" width="13" height="13"/><path d="M14.75,3.75v11h-11v-11h11m1-1h-13v13h13v-13Z"/><line class="cls-2" x1="15.75" y1="15.25" x2="2.75" y2="15.25"/><line class="cls-2" x1="15.75" y1="13.25" x2="2.75" y2="13.25"/><line class="cls-2" x1="15.75" y1="11.25" x2="2.75" y2="11.25"/><line class="cls-2" x1="15.75" y1="9.25" x2="2.75" y2="9.25"/><line class="cls-2" x1="15.75" y1="7.25" x2="2.75" y2="7.25"/><line class="cls-2" x1="15.75" y1="5.25" x2="2.75" y2="5.25"/><line class="cls-2" x1="15.75" y1="3.25" x2="2.75" y2="3.25"/></g></g></svg>