<svg xmlns="http://www.w3.org/2000/svg" viewBox="0 0 84 84"><defs><style>.cls-1,.cls-2{fill:none;stroke-miterlimit:10;}.cls-1{stroke:#cecece;stroke-width:2px;opacity:0;}.cls-2{stroke:#000;}</style></defs><g id="Layer_2" data-name="Layer 2"><g id="Layer_1-2" data-name="Layer 1"><rect x="67.75" y="3.25" width="13" height="13"/><rect class="cls-1" x="1" y="1" width="82" height="82"/><rect x="54.75" y="16.25" width="13" height="13"/><rect x="41.75" y="29.25" width="13" height="13"/><rect x="28.75" y="42.25" width="13" height="13"/><rect x="15.75" y="55.25" width="13" height="13"/><path d="M14.75,69.25v11h-11v-11h11m1-1h-13v13h13v-13Z"/><line class="cls-2" x1="15.75" y1="68.75" x2="2.75" y2="68.75"/><line class="cls-2" x1="15.75" y1="70.75" x2="2.75" y2="70.75"/><line class="cls-2" x1="15.75" y1="72.75" x2="2.75" y2="72.75"/><line class="cls-2" x1="15.75" y1="74.75" x2="2.75" y2="74.75"/><line class="cls-2" x1="15.75" y1="76.75" x2="2.75" y2="76.75"/><line class="cls-2" x1="15.75" y1="78.75" x2="2.75" y2="78.75"/><line class="cls-2" x1="15.75" y1="80.75" x2="2.75" y2="80.75"/></g></g></svg>