<svg xmlns="http://www.w3.org/2000/svg" viewBox="0 0 84 84"><defs><style>.cls-1{fill:none;stroke:#cecece;stroke-miterlimit:10;stroke-width:2px;opacity:0;}</style></defs><g id="Layer_2" data-name="Layer 2"><g id="Layer_1-2" data-name="Layer 1"><rect class="cls-1" x="1" y="1" width="82" height="82"/><rect x="3.6" y="3.5" width="12" height="12"/><rect x="16.6" y="3.5" width="12" height="12"/><rect x="29.6" y="3.5" width="12" height="12"/><rect x="42.6" y="3.5" width="12" height="12"/><rect x="55.6" y="3.5" width="12" height="12"/><rect x="68.6" y="3.5" width="12" height="12"/><rect x="3.6" y="16.5" width="12" height="12"/><rect x="16.6" y="16.5" width="12" height="12"/><rect x="29.6" y="16.5" width="12" height="12"/><rect x="42.6" y="16.5" width="12" height="12"/><rect x="55.6" y="16.5" width="12" height="12"/><rect x="68.6" y="16.5" width="12" height="12"/><rect x="3.6" y="29.5" width="12" height="12"/><rect x="16.6" y="29.5" width="12" height="12"/><rect x="29.6" y="29.5" width="12" height="12"/><rect x="42.6" y="29.5" width="12" height="12"/><rect x="55.6" y="29.5" width="12" height="12"/><rect x="68.6" y="29.5" width="12" height="12"/><rect x="3.6" y="42.5" width="12" height="12"/><rect x="16.6" y="42.5" width="12" height="12"/><rect x="29.6" y="42.5" width="12" height="12"/><rect x="42.6" y="42.5" width="12" height="12"/><rect x="55.6" y="42.5" width="12" height="12"/><rect x="68.6" y="42.5" width="12" height="12"/><rect x="3.6" y="55.5" width="12" height="12"/><rect x="16.6" y="55.5" width="12" height="12"/><rect x="29.6" y="55.5" width="12" height="12"/><rect x="42.6" y="55.5" width="12" height="12"/><rect x="55.6" y="55.5" width="12" height="12"/><rect x="68.6" y="55.5" width="12" height="12"/><rect x="3.6" y="68.5" width="12" height="12"/><rect x="16.6" y="68.5" width="12" height="12"/><rect x="29.6" y="68.5" width="12" height="12"/><rect x="42.6" y="68.5" width="12" height="12"/><rect x="55.6" y="68.5" width="12" height="12"/><rect x="68.6" y="68.5" width="12" height="12"/></g></g></svg>