<svg xmlns="http://www.w3.org/2000/svg" viewBox="0 0 84 84"><defs><style>.cls-1,.cls-2{fill:none;stroke-miterlimit:10;}.cls-1{stroke:#cecece;stroke-width:2px;opacity:0;}.cls-2{stroke:#000;}</style></defs><g id="Layer_2" data-name="Layer 2"><g id="Layer_1-2" data-name="Layer 1"><rect class="cls-1" x="1" y="1" width="82" height="82"/><rect x="40.83" y="30.45" width="13" height="13"/><rect x="40.83" y="44.39" width="13" height="13"/><rect x="40.83" y="58.32" width="13" height="13"/><line class="cls-2" x1="30.17" y1="54.75" x2="30.17" y2="31.45"/><path d="M35,47.91a.49.49,0,0,0-.69.16l-4.11,6.45-4.11-6.45a.49.49,0,0,0-.69-.16.5.5,0,0,0-.16.69l4.53,7.12a.54.54,0,0,0,.43.23.5.5,0,0,0,.42-.23l4.53-7.12a.5.5,0,0,0-.15-.69Z"/><path d="M52.83,17.51v11h-11v-11h11m1-1h-13v13h13v-13Z"/><line class="cls-2" x1="53.67" y1="19.01" x2="41.67" y2="19.01"/><line class="cls-2" x1="53.67" y1="21.01" x2="41.67" y2="21.01"/><line class="cls-2" x1="53.67" y1="23.01" x2="41.67" y2="23.01"/><line class="cls-2" x1="53.67" y1="25.01" x2="41.67" y2="25.01"/><line class="cls-2" x1="53.67" y1="27.01" x2="41.67" y2="27.01"/></g></g></svg>