<svg xmlns="http://www.w3.org/2000/svg" viewBox="0 0 84 84"><defs><style>.cls-1,.cls-2{fill:none;stroke-miterlimit:10;}.cls-1{stroke:#cecece;stroke-width:2px;opacity:0;}.cls-2{stroke:#000;}</style></defs><g id="Layer_2" data-name="Layer 2"><g id="Layer_1-2" data-name="Layer 1"><rect class="cls-1" x="1" y="1" width="82" height="82"/><rect x="29.75" y="31.5" width="13" height="13"/><rect x="43.69" y="31.5" width="13" height="13"/><rect x="57.63" y="31.5" width="13" height="13"/><line class="cls-2" x1="54.05" y1="55.17" x2="30.75" y2="55.17"/><path d="M47.21,50.37a.49.49,0,0,0,.16.69l6.45,4.11-6.45,4.11a.49.49,0,0,0-.16.69.5.5,0,0,0,.69.15L55,55.59a.5.5,0,0,0,.23-.42.54.54,0,0,0-.23-.43L47.9,50.21a.48.48,0,0,0-.26-.07A.51.51,0,0,0,47.21,50.37Z"/><path d="M27.81,32.5v11h-11v-11h11m1-1h-13v13h13v-13Z"/><line class="cls-2" x1="18.31" y1="31.67" x2="18.31" y2="43.67"/><line class="cls-2" x1="20.31" y1="31.67" x2="20.31" y2="43.67"/><line class="cls-2" x1="22.31" y1="31.67" x2="22.31" y2="43.67"/><line class="cls-2" x1="24.31" y1="31.67" x2="24.31" y2="43.67"/><line class="cls-2" x1="26.31" y1="31.67" x2="26.31" y2="43.67"/></g></g></svg>