<svg xmlns="http://www.w3.org/2000/svg" viewBox="0 0 84 84"><defs><style>.cls-1,.cls-2{fill:none;stroke-miterlimit:10;}.cls-1{stroke:#cecece;stroke-width:2px;opacity:0;}.cls-2{stroke:#000;}</style></defs><g id="Layer_2" data-name="Layer 2"><g id="Layer_1-2" data-name="Layer 1"><rect class="cls-1" x="1" y="1" width="82" height="82"/><rect x="30.17" y="44.39" width="13" height="13"/><rect x="30.17" y="30.45" width="13" height="13"/><rect x="30.17" y="16.51" width="13" height="13"/><line class="cls-2" x1="53.83" y1="33.09" x2="53.83" y2="56.39"/><path d="M49,39.92a.5.5,0,0,0,.69-.15l4.11-6.45,4.11,6.45a.5.5,0,0,0,.85-.54l-4.53-7.11a.51.51,0,0,0-.43-.23.48.48,0,0,0-.42.23l-4.53,7.11a.56.56,0,0,0-.08.27A.49.49,0,0,0,49,39.92Z"/><path d="M42.17,59.32v11h-11v-11h11m1-1h-13v13h13v-13Z"/><line class="cls-2" x1="30.33" y1="68.82" x2="42.33" y2="68.82"/><line class="cls-2" x1="30.33" y1="66.82" x2="42.33" y2="66.82"/><line class="cls-2" x1="30.33" y1="64.82" x2="42.33" y2="64.82"/><line class="cls-2" x1="30.33" y1="62.82" x2="42.33" y2="62.82"/><line class="cls-2" x1="30.33" y1="60.82" x2="42.33" y2="60.82"/></g></g></svg>