<svg xmlns="http://www.w3.org/2000/svg" viewBox="0 0 84 84"><defs><style>.cls-1,.cls-2{fill:none;stroke-miterlimit:10;}.cls-1{stroke:#cecece;stroke-width:2px;opacity:0;}.cls-2{stroke:#000;}</style></defs><g id="Layer_2" data-name="Layer 2"><g id="Layer_1-2" data-name="Layer 1"><rect class="cls-1" x="1" y="1" width="82" height="82" transform="translate(84 84) rotate(-180)"/><rect x="3.25" y="3.25" width="13" height="13"/><rect x="16.25" y="16.25" width="13" height="13"/><rect x="29.25" y="29.25" width="13" height="13"/><rect x="42.25" y="42.25" width="13" height="13"/><rect x="55.25" y="55.25" width="13" height="13"/><path d="M80.25,69.25v11h-11v-11h11m1-1h-13v13h13v-13Z"/><line class="cls-2" x1="68.25" y1="68.75" x2="81.25" y2="68.75"/><line class="cls-2" x1="68.25" y1="70.75" x2="81.25" y2="70.75"/><line class="cls-2" x1="68.25" y1="72.75" x2="81.25" y2="72.75"/><line class="cls-2" x1="68.25" y1="74.75" x2="81.25" y2="74.75"/><line class="cls-2" x1="68.25" y1="76.75" x2="81.25" y2="76.75"/><line class="cls-2" x1="68.25" y1="78.75" x2="81.25" y2="78.75"/><line class="cls-2" x1="68.25" y1="80.75" x2="81.25" y2="80.75"/></g></g></svg>