<svg xmlns="http://www.w3.org/2000/svg" viewBox="0 0 84 84"><defs><style>.cls-1,.cls-2{fill:none;stroke-miterlimit:10;}.cls-1{stroke:#cecece;stroke-width:2px;opacity:0;}.cls-2{stroke:#000;}</style></defs><g id="Layer_2" data-name="Layer 2"><g id="Layer_1-2" data-name="Layer 1"><rect class="cls-1" x="1" y="1" width="82" height="82" transform="translate(84 0) rotate(90)"/><rect x="3.25" y="67.75" width="13" height="13"/><rect x="16.25" y="54.75" width="13" height="13"/><rect x="29.25" y="41.75" width="13" height="13"/><rect x="42.25" y="28.75" width="13" height="13"/><rect x="55.25" y="15.75" width="13" height="13"/><path d="M80.25,3.75v11h-11v-11h11m1-1h-13v13h13v-13Z"/><line class="cls-2" x1="68.75" y1="15.75" x2="68.75" y2="2.75"/><line class="cls-2" x1="70.75" y1="15.75" x2="70.75" y2="2.75"/><line class="cls-2" x1="72.75" y1="15.75" x2="72.75" y2="2.75"/><line class="cls-2" x1="74.75" y1="15.75" x2="74.75" y2="2.75"/><line class="cls-2" x1="76.75" y1="15.75" x2="76.75" y2="2.75"/><line class="cls-2" x1="78.75" y1="15.75" x2="78.75" y2="2.75"/><line class="cls-2" x1="80.75" y1="15.75" x2="80.75" y2="2.75"/></g></g></svg>