<svg width="396" height="48" viewBox="0 0 396 48" fill="none" xmlns="http://www.w3.org/2000/svg">
<line x1="0.5" y1="22.209" x2="0.5" y2="28.6567" stroke="#FA7A7A"/>
<line x1="5.02637" y1="17.1943" x2="5.02637" y2="31.5227" stroke="#FA7A7A"/>
<line x1="9.55273" y1="17.1943" x2="9.55273" y2="31.5227" stroke="#FA7A7A"/>
<line x1="14.0796" y1="17.1943" x2="14.0796" y2="31.5227" stroke="#FA7A7A"/>
<line x1="18.606" y1="12.1797" x2="18.606" y2="36.5379" stroke="#FA7A7A"/>
<line x1="23.1323" y1="10.7461" x2="23.1323" y2="39.4028" stroke="#FA7A7A"/>
<line x1="27.6592" y1="5.73145" x2="27.6592" y2="42.2688" stroke="#FA7A7A"/>
<line x1="32.1855" y1="17.1943" x2="32.1855" y2="31.5227" stroke="#FA7A7A"/>
<line x1="36.7119" y1="6.44824" x2="36.7119" y2="41.5527" stroke="#FA7A7A"/>
<line x1="41.2383" y1="8.59766" x2="41.2383" y2="39.4036" stroke="#FA7A7A"/>
<line x1="45.7646" y1="17.1943" x2="45.7646" y2="31.5227" stroke="#FA7A7A"/>
<line x1="50.291" y1="19.3438" x2="50.291" y2="28.6572" stroke="#FA7A7A"/>
<line x1="52.5547" y1="17.1943" x2="52.5547" y2="31.5227" stroke="#FA7A7A"/>
<line x1="57.0811" y1="17.1943" x2="57.0811" y2="31.5227" stroke="#FA7A7A"/>
<line x1="61.6074" y1="9.31348" x2="61.6074" y2="38.6866" stroke="#FA7A7A"/>
<line x1="66.1465" y1="17.1943" x2="66.1465" y2="31.5227" stroke="#FA7A7A"/>
<line x1="70.6602" y1="17.1943" x2="70.6602" y2="31.5227" stroke="#FA7A7A"/>
<line x1="75.187" y1="17.1943" x2="75.187" y2="31.5227" stroke="#FA7A7A"/>
<line x1="79.7134" y1="7.88086" x2="79.7134" y2="40.1197" stroke="#FA7A7A"/>
<line x1="84.2402" y1="2.86621" x2="84.2402" y2="45.1349" stroke="#FA7A7A"/>
<line x1="88.7666" y1="6.44824" x2="88.7666" y2="41.5527" stroke="#FA7A7A"/>
<line x1="93.293" y1="7.88086" x2="93.293" y2="40.1197" stroke="#FA7A7A"/>
<line x1="97.8193" y1="17.1943" x2="97.8193" y2="31.5227" stroke="#FA7A7A"/>
<line x1="102.346" y1="5.73145" x2="102.346" y2="42.2688" stroke="#FA7A7A"/>
<line x1="106.873" y1="8.59766" x2="106.873" y2="39.4036" stroke="#FA7A7A"/>
<line x1="111.399" y1="6.44824" x2="111.399" y2="41.5527" stroke="#FA7A7A"/>
<line x1="115.925" y1="17.1943" x2="115.925" y2="31.5227" stroke="#FA7A7A"/>
<line x1="122.715" y1="17.1943" x2="122.715" y2="31.5227" stroke="#FA7A7A"/>
<line x1="127.242" y1="8.59766" x2="127.242" y2="39.4036" stroke="#FA7A7A"/>
<line x1="131.793" y1="10.0303" x2="131.793" y2="37.9706" stroke="#FA7A7A"/>
<line x1="136.294" y1="18.627" x2="136.294" y2="29.3732" stroke="#FA7A7A"/>
<line x1="140.821" y1="17.1943" x2="140.821" y2="31.5227" stroke="#FA7A7A"/>
<line x1="145.348" y1="9.31348" x2="145.348" y2="38.6866" stroke="#FA7A7A"/>
<line x1="149.874" y1="5.73145" x2="149.874" y2="42.2688" stroke="#FA7A7A"/>
<line x1="154.4" y1="9.31348" x2="154.4" y2="38.6866" stroke="#FA7A7A"/>
<line x1="158.927" y1="11.4629" x2="158.927" y2="37.2539" stroke="#FA7A7A"/>
<line x1="163.454" y1="2.14941" x2="163.454" y2="45.8509" stroke="#FA7A7A"/>
<line x1="167.98" y1="7.16406" x2="167.98" y2="41.5521" stroke="#FA7A7A"/>
<line x1="172.506" y1="10.7461" x2="172.506" y2="37.97" stroke="#FA7A7A"/>
<line x1="174.77" y1="7.16406" x2="174.77" y2="41.5521" stroke="#FA7A7A"/>
<line x1="179.296" y1="20.7764" x2="179.296" y2="27.9405" stroke="#FA7A7A"/>
<line x1="183.823" y1="19.3437" x2="183.823" y2="29.3736" stroke="#FA7A7A"/>
<line x1="188.349" y1="17.1943" x2="188.349" y2="31.5227" stroke="#FA7A7A"/>
<line x1="192.875" y1="9.31348" x2="192.875" y2="39.403" stroke="#FA7A7A"/>
<line x1="197.44" y1="10.7461" x2="197.44" y2="37.2536" stroke="#FA7A7A"/>
<line x1="201.929" y1="17.1943" x2="201.929" y2="31.5227" stroke="#FA7A7A"/>
<line x1="2.76318" y1="20.0596" x2="2.76318" y2="28.6566" stroke="#FA7A7A"/>
<line x1="7.28955" y1="14.3281" x2="7.28955" y2="33.6714" stroke="#FA7A7A"/>
<line x1="11.8164" y1="15.0449" x2="11.8164" y2="31.5225" stroke="#FA7A7A"/>
<line x1="16.3428" y1="11.4629" x2="16.3428" y2="37.2539" stroke="#FA7A7A"/>
<line x1="20.8691" y1="9.31348" x2="20.8691" y2="39.403" stroke="#FA7A7A"/>
<line x1="25.3955" y1="7.16406" x2="25.3955" y2="40.1193" stroke="#FA7A7A"/>
<line x1="29.9219" y1="2.86621" x2="29.9219" y2="45.1349" stroke="#FA7A7A"/>
<line x1="34.4487" y1="4.29883" x2="34.4487" y2="43.7018" stroke="#FA7A7A"/>
<line x1="38.9751" y1="8.59766" x2="38.9751" y2="39.4036" stroke="#FA7A7A"/>
<line x1="43.5015" y1="6.44824" x2="43.5015" y2="41.5527" stroke="#FA7A7A"/>
<line x1="48.0283" y1="20.7764" x2="48.0283" y2="27.2241" stroke="#FA7A7A"/>
<line x1="54.8179" y1="17.1943" x2="54.8179" y2="31.5227" stroke="#FA7A7A"/>
<line x1="59.3442" y1="12.8955" x2="59.3442" y2="35.1045" stroke="#FA7A7A"/>
<line x1="63.8711" y1="10.7461" x2="63.8711" y2="37.2536" stroke="#FA7A7A"/>
<line x1="68.3975" y1="20.0596" x2="68.3975" y2="28.6566" stroke="#FA7A7A"/>
<line x1="72.9238" y1="20.0596" x2="72.9238" y2="28.6566" stroke="#FA7A7A"/>
<line x1="77.4502" y1="11.4629" x2="77.4502" y2="37.2539" stroke="#FA7A7A"/>
<line x1="81.9766" y1="5.01465" x2="81.9766" y2="42.9848" stroke="#FA7A7A"/>
<line x1="86.5034" y1="3.58203" x2="86.5034" y2="45.1343" stroke="#FA7A7A"/>
<line x1="91.0298" y1="8.59766" x2="91.0298" y2="39.4036" stroke="#FA7A7A"/>
<line x1="95.5562" y1="12.8955" x2="95.5562" y2="35.1045" stroke="#FA7A7A"/>
<line x1="100.083" y1="2.14941" x2="100.083" y2="46.5673" stroke="#FA7A7A"/>
<line x1="104.609" y1="7.16406" x2="104.609" y2="40.8357" stroke="#FA7A7A"/>
<line x1="109.136" y1="11.4629" x2="109.136" y2="37.2539" stroke="#FA7A7A"/>
<line x1="113.662" y1="12.8955" x2="113.662" y2="35.1045" stroke="#FA7A7A"/>
<line x1="118.188" y1="20.7764" x2="118.188" y2="27.9405" stroke="#FA7A7A"/>
<line x1="120.452" y1="20.0596" x2="120.452" y2="27.9402" stroke="#FA7A7A"/>
<line x1="124.979" y1="12.8955" x2="124.979" y2="35.1045" stroke="#FA7A7A"/>
<line x1="129.505" y1="11.4629" x2="129.505" y2="37.2539" stroke="#FA7A7A"/>
<line x1="134.031" y1="12.8955" x2="134.031" y2="35.1045" stroke="#FA7A7A"/>
<line x1="138.558" y1="18.627" x2="138.558" y2="30.0896" stroke="#FA7A7A"/>
<line x1="143.084" y1="12.8955" x2="143.084" y2="35.1045" stroke="#FA7A7A"/>
<line x1="147.611" y1="4.29883" x2="147.611" y2="43.7018" stroke="#FA7A7A"/>
<line x1="152.137" y1="8.59766" x2="152.137" y2="39.4036" stroke="#FA7A7A"/>
<line x1="156.664" y1="12.8955" x2="156.664" y2="35.1045" stroke="#FA7A7A"/>
<line x1="161.19" y1="12.8955" x2="161.19" y2="35.1045" stroke="#FA7A7A"/>
<line x1="165.717" y1="5.01465" x2="165.717" y2="43.7012" stroke="#FA7A7A"/>
<line x1="170.243" y1="8.59766" x2="170.243" y2="39.4036" stroke="#FA7A7A"/>
<line x1="177.033" y1="12.8955" x2="177.033" y2="35.1045" stroke="#FA7A7A"/>
<line x1="181.56" y1="20.7764" x2="181.56" y2="27.2241" stroke="#FA7A7A"/>
<line x1="186.086" y1="17.9102" x2="186.086" y2="30.8057" stroke="#FA7A7A"/>
<line x1="190.612" y1="12.8955" x2="190.612" y2="35.1045" stroke="#FA7A7A"/>
<line x1="195.139" y1="12.8955" x2="195.139" y2="35.1045" stroke="#FA7A7A"/>
<line x1="199.628" y1="12.8955" x2="199.628" y2="35.1045" stroke="#FA7A7A"/>
<line x1="204.192" y1="19.3437" x2="204.192" y2="29.3736" stroke="#FA7A7A"/>
<line x1="204.192" y1="17.1943" x2="204.192" y2="31.5227" stroke="#7B7B7B"/>
<line x1="208.718" y1="10.0303" x2="208.718" y2="38.687" stroke="#7B7B7B"/>
<line x1="213.245" y1="7.88086" x2="213.245" y2="40.1197" stroke="#7B7B7B"/>
<line x1="217.771" y1="7.16406" x2="217.771" y2="41.5521" stroke="#7B7B7B"/>
<line x1="222.298" y1="7.88086" x2="222.298" y2="40.1197" stroke="#7B7B7B"/>
<line x1="226.824" y1="1.43262" x2="226.824" y2="47.2834" stroke="#7B7B7B"/>
<line x1="231.351" y1="7.16406" x2="231.351" y2="41.5521" stroke="#7B7B7B"/>
<line x1="235.877" y1="10.7461" x2="235.877" y2="37.97" stroke="#7B7B7B"/>
<line x1="238.141" y1="2.86523" x2="238.141" y2="45.1339" stroke="#7B7B7B"/>
<line x1="242.667" y1="17.1943" x2="242.667" y2="31.5227" stroke="#7B7B7B"/>
<line x1="247.193" y1="20.0596" x2="247.193" y2="28.6566" stroke="#7B7B7B"/>
<line x1="251.72" y1="15.0449" x2="251.72" y2="32.9554" stroke="#7B7B7B"/>
<line x1="256.247" y1="7.88086" x2="256.247" y2="40.8361" stroke="#7B7B7B"/>
<line x1="260.773" y1="12.1787" x2="260.773" y2="35.8205" stroke="#7B7B7B"/>
<line x1="265.3" y1="12.8955" x2="265.3" y2="35.1045" stroke="#7B7B7B"/>
<line x1="269.838" y1="20.0596" x2="269.838" y2="27.9402" stroke="#7B7B7B"/>
<line x1="274.353" y1="12.8955" x2="274.353" y2="35.1045" stroke="#7B7B7B"/>
<line x1="278.879" y1="6.44824" x2="278.879" y2="41.5527" stroke="#7B7B7B"/>
<line x1="283.405" y1="6.44824" x2="283.405" y2="41.5527" stroke="#7B7B7B"/>
<line x1="287.932" y1="10.7461" x2="287.932" y2="37.2536" stroke="#7B7B7B"/>
<line x1="290.195" y1="12.1787" x2="290.195" y2="35.8205" stroke="#7B7B7B"/>
<line x1="294.722" y1="6.44824" x2="294.722" y2="41.5527" stroke="#7B7B7B"/>
<line x1="299.248" y1="6.44824" x2="299.248" y2="41.5527" stroke="#7B7B7B"/>
<line x1="303.774" y1="7.88086" x2="303.774" y2="40.1197" stroke="#7B7B7B"/>
<line x1="308.301" y1="17.1943" x2="308.301" y2="31.5227" stroke="#7B7B7B"/>
<line x1="312.827" y1="21.4922" x2="312.827" y2="27.2235" stroke="#7B7B7B"/>
<line x1="317.354" y1="18.627" x2="317.354" y2="30.0896" stroke="#7B7B7B"/>
<line x1="321.881" y1="13.6123" x2="321.881" y2="35.1048" stroke="#7B7B7B"/>
<line x1="326.407" y1="7.88086" x2="326.407" y2="40.1197" stroke="#7B7B7B"/>
<line x1="330.934" y1="13.6123" x2="330.934" y2="35.1048" stroke="#7B7B7B"/>
<line x1="335.484" y1="17.1943" x2="335.484" y2="31.5227" stroke="#7B7B7B"/>
<line x1="339.986" y1="15.7607" x2="339.986" y2="32.9548" stroke="#7B7B7B"/>
<line x1="342.512" y1="8.59668" x2="342.512" y2="40.1191" stroke="#7B7B7B"/>
<line x1="347.039" y1="3.58203" x2="347.039" y2="44.4179" stroke="#7B7B7B"/>
<line x1="351.565" y1="10.7461" x2="351.565" y2="37.97" stroke="#7B7B7B"/>
<line x1="356.092" y1="10.7461" x2="356.092" y2="37.97" stroke="#7B7B7B"/>
<line x1="360.618" y1="-2.36633e-08" x2="360.618" y2="48" stroke="#7B7B7B"/>
<line x1="365.145" y1="9.31348" x2="365.145" y2="39.403" stroke="#7B7B7B"/>
<line x1="369.671" y1="7.88086" x2="369.671" y2="40.1197" stroke="#7B7B7B"/>
<line x1="374.198" y1="6.44824" x2="374.198" y2="41.5527" stroke="#7B7B7B"/>
<line x1="378.724" y1="17.1943" x2="378.724" y2="31.5227" stroke="#7B7B7B"/>
<line x1="383.25" y1="22.209" x2="383.25" y2="26.5075" stroke="#7B7B7B"/>
<line x1="387.777" y1="17.1943" x2="387.777" y2="31.5227" stroke="#7B7B7B"/>
<line x1="392.304" y1="20.0596" x2="392.304" y2="27.9402" stroke="#7B7B7B"/>
<line x1="206.455" y1="12.8955" x2="206.455" y2="35.1045" stroke="#7B7B7B"/>
<line x1="210.981" y1="7.16406" x2="210.981" y2="41.5521" stroke="#7B7B7B"/>
<line x1="215.508" y1="2.14941" x2="215.508" y2="45.8509" stroke="#7B7B7B"/>
<line x1="220.035" y1="12.8955" x2="220.035" y2="35.1045" stroke="#7B7B7B"/>
<line x1="224.561" y1="10.7461" x2="224.561" y2="37.97" stroke="#7B7B7B"/>
<line x1="229.087" y1="5.73145" x2="229.087" y2="42.9852" stroke="#7B7B7B"/>
<line x1="233.614" y1="7.88086" x2="233.614" y2="40.1197" stroke="#7B7B7B"/>
<line x1="240.404" y1="7.88086" x2="240.404" y2="40.1197" stroke="#7B7B7B"/>
<line x1="244.93" y1="20.0596" x2="244.93" y2="28.6566" stroke="#7B7B7B"/>
<line x1="249.457" y1="20.7764" x2="249.457" y2="27.9405" stroke="#7B7B7B"/>
<line x1="253.983" y1="12.8955" x2="253.983" y2="35.1045" stroke="#7B7B7B"/>
<line x1="258.51" y1="10.7461" x2="258.51" y2="37.97" stroke="#7B7B7B"/>
<line x1="263.036" y1="11.4629" x2="263.036" y2="35.1047" stroke="#7B7B7B"/>
<line x1="267.562" y1="12.8955" x2="267.562" y2="35.1045" stroke="#7B7B7B"/>
<line x1="272.089" y1="17.9102" x2="272.089" y2="30.8057" stroke="#7B7B7B"/>
<line x1="276.616" y1="10.7461" x2="276.616" y2="37.97" stroke="#7B7B7B"/>
<line x1="281.142" y1="1.43262" x2="281.142" y2="47.2834" stroke="#7B7B7B"/>
<line x1="285.668" y1="8.59668" x2="285.668" y2="39.4026" stroke="#7B7B7B"/>
<line x1="292.458" y1="0.716797" x2="292.458" y2="47.284" stroke="#7B7B7B"/>
<line x1="296.985" y1="3.58203" x2="296.985" y2="45.1343" stroke="#7B7B7B"/>
<line x1="301.511" y1="8.59668" x2="301.511" y2="39.4026" stroke="#7B7B7B"/>
<line x1="306.038" y1="5.73145" x2="306.038" y2="42.9852" stroke="#7B7B7B"/>
<line x1="310.564" y1="20.7764" x2="310.564" y2="27.9405" stroke="#7B7B7B"/>
<line x1="315.091" y1="20.0596" x2="315.091" y2="27.9402" stroke="#7B7B7B"/>
<line x1="319.617" y1="15.7607" x2="319.617" y2="32.2384" stroke="#7B7B7B"/>
<line x1="324.144" y1="10.0303" x2="324.144" y2="37.9706" stroke="#7B7B7B"/>
<line x1="328.67" y1="11.4629" x2="328.67" y2="37.2539" stroke="#7B7B7B"/>
<line x1="333.197" y1="18.627" x2="333.197" y2="29.3732" stroke="#7B7B7B"/>
<line x1="337.723" y1="15.0449" x2="337.723" y2="32.9554" stroke="#7B7B7B"/>
<line x1="344.775" y1="7.16406" x2="344.775" y2="41.5521" stroke="#7B7B7B"/>
<line x1="349.302" y1="7.16406" x2="349.302" y2="40.8357" stroke="#7B7B7B"/>
<line x1="353.829" y1="8.59668" x2="353.829" y2="40.1191" stroke="#7B7B7B"/>
<line x1="358.354" y1="10.7461" x2="358.354" y2="37.2536" stroke="#7B7B7B"/>
<line x1="362.881" y1="6.44824" x2="362.881" y2="42.2691" stroke="#7B7B7B"/>
<line x1="367.408" y1="3.58203" x2="367.408" y2="44.4179" stroke="#7B7B7B"/>
<line x1="371.935" y1="12.8955" x2="371.935" y2="35.1045" stroke="#7B7B7B"/>
<line x1="376.461" y1="11.4629" x2="376.461" y2="36.5375" stroke="#7B7B7B"/>
<line x1="380.987" y1="20.0596" x2="380.987" y2="28.6566" stroke="#7B7B7B"/>
<line x1="385.514" y1="20.7764" x2="385.514" y2="27.9405" stroke="#7B7B7B"/>
<line x1="390.041" y1="15.0449" x2="390.041" y2="32.9554" stroke="#7B7B7B"/>
<line x1="394.567" y1="20.7764" x2="394.567" y2="27.2241" stroke="#7B7B7B"/>
</svg>
