<svg width="359" height="20" viewBox="0 0 359 20" fill="none" xmlns="http://www.w3.org/2000/svg">
<g clip-path="url(#clip0_19_1271)">
<path d="M244.724 11.9113V15.8762H260.292V19.5609H240.83V0.107178H260.194V3.66819H244.683V7.78974H260.497V4.05562H264.113V15.596H260.668V11.9113H244.724Z" fill="#333333"/>
<path d="M120.007 0C121.166 0 122.284 0 123.395 0C123.484 0 123.599 0.156619 123.64 0.263779C123.66 0.389309 123.66 0.517432 123.64 0.642961V15.7938H142.686C143.322 15.7938 143.322 15.7938 143.322 16.4367C143.322 17.261 143.322 18.1513 143.322 19.0086C143.322 19.4125 143.208 19.5196 142.816 19.5196C137.379 19.5196 131.942 19.5196 126.489 19.5196H119.958L120.007 0Z" fill="#F72C2C"/>
<path d="M210.935 0.0742188H214.445V7.9711H226.242V11.5981H214.551V19.4867H210.935V0.0742188Z" fill="#F72C2C"/>
<path d="M331.798 0.123535H335.268V7.93799H347.097V11.6886H335.39V19.569H331.798V0.123535Z" fill="#333333"/>
<path d="M291.747 4.06396V11.5405H272.481V4.06396H276.122V6.47919C276.122 6.6523 276.122 6.8254 276.122 6.99851C276.122 7.76511 276.318 7.94646 277.093 7.94646H287.78C287.861 7.95088 287.943 7.95088 288.024 7.94646V4.06396H291.747Z" fill="#333333"/>
<path d="M304.001 16.0906H323.284V19.5527H304.001V16.0906Z" fill="#333333"/>
<path d="M303.977 0.148438H323.284V3.57756H303.977V0.148438Z" fill="#333333"/>
<path d="M202.501 15.9834C202.501 17.1292 202.501 18.1925 202.501 19.2806C202.501 19.3631 202.346 19.4785 202.248 19.5279C202.14 19.5487 202.03 19.5487 201.922 19.5279C195.864 19.5279 189.815 19.5279 183.766 19.5279C183.284 19.5279 183.137 19.4043 183.162 18.9262C183.202 18.1299 183.202 17.332 183.162 16.5357C183.162 16.0906 183.292 15.9834 183.717 15.9834C188.982 15.9834 194.248 15.9834 199.513 15.9834H202.501Z" fill="#F72C2C"/>
<path d="M170.9 0.107178V3.52806H151.641V0.107178H170.9Z" fill="#F72C2C"/>
<path d="M183.21 0.0825195H202.412V3.59408H183.21V0.0825195Z" fill="#F72C2C"/>
<path d="M151.666 19.429V15.9751H170.891V19.429H151.666Z" fill="#F72C2C"/>
<path d="M303.544 15.6618H300.131V4.03076H303.544V15.6618Z" fill="#333333"/>
<path d="M171.536 4.1958H174.957V15.5795H171.536V4.1958Z" fill="#F72C2C"/>
<path d="M203.016 15.4888V4.12158H206.461V15.4888H203.016Z" fill="#F72C2C"/>
<path d="M147.763 4.1709H151.143V15.4722C151.013 15.4722 150.882 15.4722 150.743 15.4722C149.862 15.4722 148.98 15.4722 148.098 15.4722C147.829 15.4722 147.706 15.4145 147.706 15.1012C147.706 11.5402 147.706 7.98745 147.706 4.42643C147.717 4.33956 147.736 4.25397 147.763 4.1709V4.1709Z" fill="#F72C2C"/>
<path d="M287.788 3.55284H276.546V0.148438H287.788V3.55284Z" fill="#333333"/>
<path d="M182.753 15.4887H179.39V4.20386H182.753V15.4887Z" fill="#F72C2C"/>
<path d="M292.261 12.1338H295.796V19.5526H292.261V12.1338Z" fill="#333333"/>
<path d="M359 19.5691H351.424V16.0823H359V19.5691Z" fill="#333333"/>
<path d="M230.658 0.0742188H238.16V3.56929H230.658V0.0742188Z" fill="#F72C2C"/>
<path d="M358.992 0.107178V3.53631H351.473V0.107178H358.992Z" fill="#333333"/>
<path d="M230.642 19.4948V16.0327H238.103V19.4948H230.642Z" fill="#F72C2C"/>
<path d="M271.967 19.495H268.521V12.1174H271.967V19.495Z" fill="#333333"/>
<path d="M327.3 7.50125H323.765V4.12158H327.3V7.50125Z" fill="#333333"/>
<path d="M327.317 15.5795H323.79V12.1174H327.317V15.5795Z" fill="#333333"/>
<path d="M350.951 7.55885H347.538V4.07202H350.951V7.55885Z" fill="#333333"/>
<path d="M347.514 12.1833H350.983V15.6042H347.514V12.1833Z" fill="#333333"/>
<path d="M19.4133 0.098877V3.70935H3.90219V15.8844H19.4133V19.6268H-7.54907e-05C-0.00713629 19.4977 -0.00713629 19.3684 -7.54907e-05 19.2393V0.379142C-7.54907e-05 0.288468 -7.54907e-05 0.189551 -7.54907e-05 0.098877H19.4133Z" fill="#333333"/>
<path d="M86.5355 0.098877C86.5355 0.271982 86.5763 0.445087 86.5763 0.618192C86.5763 6.76204 86.5763 12.9004 86.5763 19.0333V19.5691H79.0085V16.0905C79.6453 16.0493 80.2821 15.9833 80.9189 15.9668C82.6006 15.9668 82.8537 15.6866 82.8537 13.9802C82.8537 9.5537 82.8537 5.13541 82.8537 0.708866C82.8537 0.502789 82.8537 0.304954 82.8537 0.098877H86.5355Z" fill="#333333"/>
<path d="M118.162 0.206055V3.69288H106.488V19.6515H102.708V3.83302H90.9031V0.206055H118.162Z" fill="#333333"/>
<path d="M59.334 0.206055H66.6813V3.65991H62.9424V19.635H59.334V0.206055Z" fill="#333333"/>
<path d="M31.6262 19.6352V16.1318H50.9334V19.6352H31.6262Z" fill="#333333"/>
<path d="M50.9172 0.197754V3.67634H31.6018V0.197754H50.9172Z" fill="#333333"/>
<path d="M31.1528 15.563H27.6587V4.12158H31.1528V15.563Z" fill="#333333"/>
<path d="M54.9746 15.563H51.5132V4.12158H54.9746V15.563Z" fill="#333333"/>
<path d="M19.9031 4.12158H23.3318V15.5383H19.9031V4.12158Z" fill="#333333"/>
<path d="M67.2366 4.12158H70.7551V7.55895H67.2366V4.12158Z" fill="#333333"/>
<path d="M71.2041 8.03711H74.6247V11.5404H71.2041V8.03711Z" fill="#333333"/>
<path d="M78.5513 15.563H75.1062V12.1091H78.5268L78.5513 15.563Z" fill="#333333"/>
<path d="M226.699 4.20386H230.111C230.111 4.36872 230.111 4.53358 230.111 4.69844C230.111 5.52275 230.111 6.38828 230.111 7.22907C230.111 7.53407 230.054 7.69069 229.703 7.6742C228.821 7.6742 227.94 7.6742 227.058 7.6742C226.829 7.6742 226.666 7.6742 226.666 7.35272C226.699 6.32233 226.699 5.2837 226.699 4.20386Z" fill="#F72C2C"/>
<path d="M230.16 12.1174V15.4971H226.772V12.1174H230.16Z" fill="#F72C2C"/>
</g>
<defs>
<clipPath id="clip0_19_1271">
<rect width="359" height="19.6515" fill="white"/>
</clipPath>
</defs>
</svg>
